# xmcd CD database file
#
# Track frame offsets:
#	150
#	18845
#	36405
#	48788
#	75092
#	90183
#	105828
#	118221
#	153525
#	168792
#	183101
#	197454
#	220489
#	233587
#	244017
#	260292
#	272089
#	286200
#	302888
#
# Disc length: 4232 seconds
#
# Revision: 0
# Processed by: cddbd v1.5.1PL2 Copyright (c) Steve Scherf et al.
# Submitted via: CDex 1.51
#
DISCID=e3108613
DTITLE=Miles Davis - Embraceable You
DYEAR=2002
DGENRE=Jazz
TTITLE0=Embraceable You
TTITLE1=Focus
TTITLE2=For Europeans Only
TTITLE3=God Child
TTITLE4=Good Bait
TTITLE5=Goodnight My Love
TTITLE6=Half Nelson
TTITLE7=Hot House
TTITLE8=Hpw Deep Is The Ocean
TTITLE9=Jeru
TTITLE10=It Might As Well Be Spring
TTITLE11=Ladybird
TTITLE12=Mean To Me
TTITLE13=Merry-Go Round
TTITLE14=Milano
TTITLE15=Milestones
TTITLE16=Moon Dreams
TTITLE17=Move
TTITLE18=My Old Flame
EXTD=YEAR: 2002
EXTT0=
EXTT1=
EXTT2=
EXTT3=
EXTT4=
EXTT5=
EXTT6=
EXTT7=
EXTT8=
EXTT9=
EXTT10=
EXTT11=
EXTT12=
EXTT13=
EXTT14=
EXTT15=
EXTT16=
EXTT17=
EXTT18=
PLAYORDER=
